<?xml version="1.0" ?><svg enable-background="new 0 0 100 100" version="1.1" viewBox="0 0 100 100" xml:space="preserve" xmlns="http://www.w3.org/2000/svg" xmlns:xlink="http://www.w3.org/1999/xlink"><g id="Layer_6"><g><path d="M62.413,52.381c-0.546-1.178-1.23-2.17-2.086-3.026c-3.458-2.317-7.31-3.46-11.525-3.46    c-2.633,0-5.32,0.45-7.987,1.339c-2.191,1.09-3.541,2.679-4.397,5.146H10.871c-0.515,0-0.934-0.419-0.934-0.934v-13.13    c0-0.515,0.419-0.934,0.934-0.934h78.257c0.515,0,0.934,0.419,0.934,0.934v13.13c0,0.515-0.419,0.934-0.934,0.934H62.413z" fill="#303030"/><path d="M89.128,37.882c0.239,0,0.434,0.195,0.434,0.434v13.131c0,0.239-0.195,0.434-0.434,0.434H62.728    c-0.547-1.106-1.22-2.053-2.047-2.879l-0.07-0.07l-0.082-0.055c-3.465-2.31-7.411-3.482-11.726-3.482    c-2.687,0-5.427,0.459-8.145,1.365l-0.067,0.022l-0.064,0.032c-2.668,1.334-3.837,3.403-4.46,5.067H10.872    c-0.239,0-0.434-0.195-0.434-0.434V38.316c0-0.239,0.195-0.434,0.434-0.434H89.128 M89.128,36.882H10.872    c-0.792,0-1.434,0.642-1.434,1.434v13.131c0,0.792,0.642,1.434,1.434,1.434h25.908c0.671-2.109,1.782-3.966,4.194-5.172    c2.485-0.828,5.142-1.314,7.828-1.314c3.799,0,7.657,0.97,11.172,3.314c0.956,0.956,1.621,2.029,2.115,3.172h27.04    c0.792,0,1.434-0.642,1.434-1.434V38.316C90.562,37.524,89.92,36.882,89.128,36.882L89.128,36.882z" fill="#191919"/></g><g id="Layer_7"><rect fill="#44668E" height="20.163" width="29.806" x="14.894" y="39.56"/><rect fill="#A52929" height="20.163" width="29.806" x="54.861" y="39.56"/></g><g><path d="M56.957,62.618c-0.799,0-1.542-0.599-1.893-1.526c-2.987-7.896-4.551-7.896-5.064-7.896    s-2.077,0-5.064,7.896c-0.351,0.927-1.093,1.526-1.893,1.526H19.976c-3.512,0-6.369-3.561-6.369-7.938V41.256    c0-2.136,1.373-3.874,3.061-3.874h66.665c1.688,0,3.061,1.738,3.061,3.874V54.68c0,4.377-2.857,7.938-6.369,7.938H56.957z     M59.386,40.457c-1.844,0-3.344,1.5-3.344,3.344v11.856c0,1.844,1.5,3.344,3.344,3.344h20.756c1.844,0,3.344-1.5,3.344-3.344    V43.801c0-1.844-1.5-3.344-3.344-3.344H59.386z M19.858,40.457c-1.844,0-3.344,1.5-3.344,3.344v11.856    c0,1.844,1.5,3.344,3.344,3.344h20.756c1.844,0,3.344-1.5,3.344-3.344V43.801c0-1.844-1.5-3.344-3.344-3.344H19.858z" fill="#5B5B5B"/><path d="M83.333,37.882c1.412,0,2.561,1.514,2.561,3.374v0.865v4.132v8.427c0,4.101-2.633,7.438-5.87,7.438H56.957    c-0.589,0-1.148-0.472-1.425-1.203c-3.109-8.218-4.807-8.218-5.532-8.218s-2.423,0-5.532,8.218    c-0.276,0.731-0.836,1.203-1.425,1.203H19.976c-3.236,0-5.87-3.337-5.87-7.438v-8.427v-4.132v-0.865    c0-1.86,1.149-3.374,2.561-3.374h0.704h65.256H83.333 M59.386,59.501h20.756c2.12,0,3.844-1.724,3.844-3.844V43.801    c0-2.12-1.724-3.844-3.844-3.844H59.386c-2.12,0-3.844,1.724-3.844,3.844v11.856C55.542,57.776,57.267,59.501,59.386,59.501     M19.858,59.501h20.756c2.12,0,3.844-1.724,3.844-3.844V43.801c0-2.12-1.724-3.844-3.844-3.844H19.858    c-2.12,0-3.844,1.724-3.844,3.844v11.856C16.014,57.776,17.738,59.501,19.858,59.501 M83.333,36.882h-0.704H17.372h-0.704    c-1.967,0-3.561,1.958-3.561,4.374v0.865v4.132v8.427c0,4.66,3.076,8.438,6.87,8.438h23.067c1.015,0,1.932-0.718,2.36-1.849    c1.038-2.744,3.08-7.572,4.597-7.572s3.559,4.829,4.597,7.572c0.428,1.131,1.345,1.849,2.36,1.849h23.067    c3.794,0,6.87-3.778,6.87-8.438v-8.427v-4.132v-0.865C86.894,38.841,85.299,36.882,83.333,36.882L83.333,36.882z M59.386,58.501    c-1.571,0-2.844-1.273-2.844-2.844V43.801c0-1.571,1.273-2.844,2.844-2.844h20.756c1.571,0,2.844,1.273,2.844,2.844v11.856    c0,1.571-1.273,2.844-2.844,2.844H59.386L59.386,58.501z M19.858,58.501c-1.571,0-2.844-1.273-2.844-2.844V43.801    c0-1.571,1.273-2.844,2.844-2.844h20.756c1.571,0,2.844,1.273,2.844,2.844v11.856c0,1.571-1.273,2.844-2.844,2.844H19.858    L19.858,58.501z" fill="#191919"/></g></g></svg>