<svg version="1.1" id="Layer_1" xmlns="http://www.w3.org/2000/svg" xmlns:xlink="http://www.w3.org/1999/xlink" x="0px" y="0px" enable-background="new 0 0 612 792" xml:space="preserve" viewBox="57.75 315.72 496.5 274.97">
<g id="Layer_6">
	<g>
		<path fill="#FFFFFF" d="M381.968,410.572c-3.342-7.211-7.526-13.281-12.767-18.521c-21.163-14.18-44.737-21.175-70.533-21.175    c-16.114,0-32.558,2.754-48.88,8.195c-13.409,6.67-21.671,16.396-26.91,31.492H66.53c-3.151,0-5.716-2.563-5.716-5.715v-80.354    c0-3.152,2.564-5.716,5.716-5.716h478.933c3.152,0,5.717,2.564,5.717,5.716v80.354c0,3.151-2.563,5.715-5.717,5.715H381.968    V410.572z"/>
		<path fill="#191919" d="M545.463,321.838c1.463,0,2.656,1.193,2.656,2.656v80.361c0,1.463-1.193,2.656-2.656,2.656H383.896    c-3.35-6.771-7.469-12.564-12.527-17.622l-0.429-0.428l-0.503-0.337c-21.205-14.137-45.354-21.31-71.764-21.31    c-16.445,0-33.214,2.809-49.848,8.354l-0.41,0.134l-0.392,0.196c-16.328,8.164-23.482,20.827-27.295,31.01H66.537    c-1.463,0-2.656-1.192-2.656-2.655v-80.36c0-1.463,1.193-2.656,2.656-2.656L545.463,321.838 M545.463,315.718H66.537    c-4.847,0-8.776,3.929-8.776,8.776v80.361c0,4.848,3.929,8.774,8.776,8.774h158.557c4.106-12.905,10.906-24.272,25.667-31.653    c15.208-5.067,31.469-8.042,47.907-8.042c23.25,0,46.861,5.937,68.373,20.282c5.851,5.852,9.92,12.417,12.943,19.413H545.47    c4.849,0,8.775-3.929,8.775-8.774v-80.361C554.239,319.647,550.311,315.718,545.463,315.718L545.463,315.718z"/>
	</g>
	<g id="Layer_7">
		<rect x="91.151" y="332.107" fill="#44668E" width="182.413" height="123.397"/>
		<rect x="335.749" y="332.107" fill="#A52929" width="182.413" height="123.397"/>
	</g>
	<g>
		<path fill="#FCFCFC" d="M348.577,473.222c-4.893,0-9.438-3.665-11.586-9.339c-18.28-48.322-27.853-48.322-30.991-48.322    s-12.711,0-30.992,48.322c-2.148,5.674-6.689,9.339-11.585,9.339h-141.17c-21.493,0-38.978-21.793-38.978-48.58v-82.155    c0-13.072,8.403-23.709,18.733-23.709h407.99c10.33,0,18.732,10.637,18.732,23.709v82.155c0,26.787-17.484,48.58-38.979,48.58    H348.577L348.577,473.222z M363.442,337.597c-11.285,0-20.468,9.18-20.468,20.465v72.559c0,11.285,9.183,20.465,20.468,20.465    h127.024c11.285,0,20.466-9.18,20.466-20.465v-72.559c0-11.285-9.181-20.465-20.466-20.465H363.442L363.442,337.597z     M121.531,337.597c-11.285,0-20.465,9.18-20.465,20.465v72.559c0,11.285,9.18,20.465,20.465,20.465h127.027    c11.285,0,20.465-9.18,20.465-20.465v-72.559c0-11.285-9.18-20.465-20.465-20.465H121.531L121.531,337.597z"/>
		<path fill="#191919" d="M509.998,321.838c8.642,0,15.673,9.266,15.673,20.649v5.293v25.288v51.573    c0,25.1-16.113,45.521-35.924,45.521h-141.17c-3.604,0-7.026-2.889-8.722-7.362c-19.026-50.294-29.42-50.294-33.855-50.294    c-4.438,0-14.829,0-33.856,50.294c-1.689,4.476-5.116,7.362-8.721,7.362h-141.17c-19.804,0-35.924-20.423-35.924-45.521v-51.573    V347.78v-5.293c0-11.383,7.032-20.649,15.673-20.649h4.309h399.367H509.998 M363.442,454.146h127.024    c12.977,0,23.525-10.551,23.525-23.523v-72.559c0-12.974-10.551-23.525-23.525-23.525H363.442    c-12.977,0-23.525,10.551-23.525,23.525v72.559C339.917,443.589,350.474,454.146,363.442,454.146 M121.531,454.146h127.027    c12.975,0,23.525-10.551,23.525-23.523v-72.559c0-12.974-10.551-23.525-23.525-23.525H121.531    c-12.974,0-23.525,10.551-23.525,23.525v72.559C98.006,443.589,108.557,454.146,121.531,454.146 M509.998,315.718h-4.309H106.316    h-4.308c-12.038,0-21.793,11.983-21.793,26.769v5.293v25.288v51.573c0,28.521,18.825,51.643,42.044,51.643h141.17    c6.212,0,11.824-4.396,14.443-11.316c6.353-16.793,18.85-46.341,28.133-46.341c9.284,0,21.781,29.554,28.134,46.341    c2.619,6.922,8.231,11.316,14.443,11.316h141.17c23.22,0,42.045-23.121,42.045-51.643v-51.573V347.78v-5.293    C531.791,327.707,522.03,315.718,509.998,315.718L509.998,315.718z M363.442,448.026c-9.614,0-17.405-7.791-17.405-17.405v-72.559    c0-9.614,7.791-17.405,17.405-17.405h127.024c9.615,0,17.405,7.791,17.405,17.405v72.559c0,9.614-7.79,17.405-17.405,17.405    H363.442L363.442,448.026z M121.531,448.026c-9.614,0-17.405-7.791-17.405-17.405v-72.559c0-9.614,7.791-17.405,17.405-17.405    h127.027c9.615,0,17.405,7.791,17.405,17.405v72.559c0,9.614-7.791,17.405-17.405,17.405H121.531L121.531,448.026z"/>
	</g>
</g>
<g>
	<rect y="493.833" fill="none" width="612" height="41.334"/>
</g>
<g enable-background="new    ">
	<path d="M171.952,573.5v-44.145l-28.844,34.865h-1.465l-28.844-34.865V573.5h-1.832v-47.061h1.465l29.943,36.19l29.943-36.19h1.465   V573.5H171.952z"/>
	<path d="M209.038,574.163c-3.113,0-6.044-0.464-8.791-1.393c-2.747-0.928-5.159-2.22-7.234-3.877   c-2.076-1.657-3.694-3.557-4.853-5.7c-1.161-2.144-1.74-4.408-1.74-6.794c0-2.43,0.595-4.717,1.786-6.86   c1.19-2.144,2.823-4.044,4.899-5.7c2.075-1.657,4.487-2.95,7.234-3.878s5.646-1.392,8.699-1.392c3.052,0,5.952,0.464,8.699,1.392   s5.158,2.221,7.234,3.878c2.075,1.656,3.708,3.557,4.899,5.7s1.786,4.431,1.786,6.86c0,2.386-0.581,4.65-1.74,6.794   c-1.161,2.144-2.793,4.043-4.899,5.7c-2.106,1.657-4.519,2.949-7.234,3.877C215.066,573.699,212.151,574.163,209.038,574.163z    M188.251,556.531c0,2.961,0.93,5.679,2.793,8.153c1.861,2.475,4.364,4.452,7.509,5.932c3.144,1.481,6.607,2.221,10.393,2.221   c3.785,0,7.264-0.751,10.439-2.253c3.173-1.502,5.708-3.514,7.601-6.032c1.891-2.519,2.838-5.258,2.838-8.219   c0-2.96-0.947-5.689-2.838-8.187c-1.893-2.496-4.411-4.495-7.555-5.998c-3.145-1.502-6.609-2.254-10.393-2.254   c-3.725,0-7.174,0.763-10.348,2.287c-3.175,1.524-5.708,3.546-7.6,6.064C189.197,550.765,188.251,553.527,188.251,556.531z"/>
	<path d="M257.112,573.5l-20.695-34.4h2.015l19.504,32.479l19.504-32.479h2.015l-20.695,34.4H257.112z"/>
	<path d="M289.436,530.217v-5.104h1.832v5.104H289.436z M289.436,573.5v-34.4h1.832v34.4H289.436z"/>
	<path d="M326.063,574.163c-3.113,0-6.06-0.476-8.836-1.426c-2.779-0.949-5.22-2.253-7.326-3.91   c-2.105-1.657-3.754-3.579-4.944-5.767s-1.786-4.518-1.786-6.993c0-3.225,1.008-6.164,3.022-8.815s4.716-4.761,8.104-6.33   c3.388-1.568,7.157-2.353,11.309-2.353c4.213,0,8.043,0.795,11.492,2.386c3.448,1.591,6.211,3.724,8.287,6.396   c2.075,2.674,3.113,5.667,3.113,8.981c0,0.132,0,0.255,0,0.364c0,0.11,0,0.232,0,0.364h-43.495   c0.305,2.961,1.434,5.635,3.388,8.021c1.953,2.386,4.487,4.275,7.601,5.667c3.113,1.393,6.501,2.088,10.164,2.088   s7.081-0.673,10.256-2.021c3.174-1.348,5.433-3.082,6.776-5.203l1.739,0.331c-0.855,1.548-2.243,2.95-4.166,4.209   c-1.923,1.26-4.167,2.243-6.73,2.95C331.465,573.809,328.81,574.163,326.063,574.163z M305.002,555.736h41.572   c-0.244-3.093-1.313-5.821-3.205-8.187c-1.893-2.363-4.365-4.23-7.417-5.601c-3.053-1.369-6.472-2.055-10.256-2.055   c-3.725,0-7.112,0.686-10.164,2.055c-3.054,1.37-5.51,3.248-7.371,5.634C306.298,549.97,305.245,552.688,305.002,555.736z"/>
	<path d="M360.31,573.5v-47.061h26.464c2.686,0,5.142,0.409,7.371,1.226c2.228,0.818,4.15,1.912,5.769,3.281   c1.617,1.37,2.885,2.895,3.801,4.573c0.915,1.681,1.373,3.403,1.373,5.171c0,2.431-0.702,4.695-2.105,6.794   c-1.405,2.099-3.343,3.834-5.815,5.203c-2.472,1.37-5.356,2.144-8.653,2.319l16.483,18.493h-2.198l-16.482-18.493h-24.175V573.5   H360.31z M362.141,553.682h25.273c3.297,0,6.119-0.63,8.471-1.89c2.349-1.259,4.166-2.883,5.448-4.871   c1.282-1.989,1.923-4.065,1.923-6.23c0-2.254-0.732-4.363-2.197-6.33c-1.466-1.966-3.45-3.557-5.952-4.772   c-2.504-1.215-5.281-1.823-8.333-1.823h-24.633V553.682z"/>
	<path d="M435.488,574.163c-3.113,0-6.044-0.464-8.791-1.393c-2.747-0.928-5.159-2.22-7.233-3.877   c-2.076-1.657-3.694-3.557-4.854-5.7c-1.16-2.144-1.74-4.408-1.74-6.794c0-2.43,0.596-4.717,1.786-6.86s2.822-4.044,4.898-5.7   c2.075-1.657,4.487-2.95,7.234-3.878s5.646-1.392,8.699-1.392c3.052,0,5.952,0.464,8.699,1.392s5.158,2.221,7.233,3.878   c2.075,1.656,3.709,3.557,4.899,5.7s1.785,4.431,1.785,6.86c0,2.386-0.58,4.65-1.739,6.794c-1.16,2.144-2.793,4.043-4.899,5.7   c-2.105,1.657-4.519,2.949-7.233,3.877C441.516,573.699,438.602,574.163,435.488,574.163z M414.702,556.531   c0,2.961,0.93,5.679,2.793,8.153c1.861,2.475,4.363,4.452,7.509,5.932c3.143,1.481,6.606,2.221,10.393,2.221   c3.784,0,7.265-0.751,10.439-2.253c3.173-1.502,5.707-3.514,7.6-6.032c1.892-2.519,2.839-5.258,2.839-8.219   c0-2.96-0.947-5.689-2.839-8.187c-1.893-2.496-4.411-4.495-7.555-5.998c-3.145-1.502-6.608-2.254-10.393-2.254   c-3.725,0-7.174,0.763-10.348,2.287c-3.175,1.524-5.709,3.546-7.601,6.064C415.647,550.765,414.702,553.527,414.702,556.531z"/>
	<path d="M470.559,525.113h1.831v43.585c0,1.291,0.55,2.315,1.648,3.071s2.564,1.134,4.396,1.134c0.671,0,1.479-0.055,2.427-0.166   c0.945-0.109,1.815-0.253,2.609-0.431l0.642,1.061c-0.794,0.177-1.832,0.354-3.113,0.53c-1.282,0.177-2.352,0.266-3.205,0.266   c-2.138,0-3.878-0.502-5.22-1.502c-1.344-1-2.015-2.324-2.015-3.971V525.113z"/>
	<path d="M492.352,525.113h1.831v43.585c0,1.291,0.55,2.315,1.648,3.071s2.564,1.134,4.396,1.134c0.671,0,1.479-0.055,2.427-0.166   c0.945-0.109,1.815-0.253,2.609-0.431l0.642,1.061c-0.794,0.177-1.832,0.354-3.113,0.53c-1.282,0.177-2.352,0.266-3.205,0.266   c-2.138,0-3.878-0.502-5.22-1.502c-1.344-1-2.015-2.324-2.015-3.971V525.113z"/>
</g>
<g enable-background="new    ">
	<path fill="none" stroke="#000000" stroke-width="3" stroke-miterlimit="10" d="M171.952,573.5v-44.145l-28.844,34.865h-1.465   l-28.844-34.865V573.5h-1.832v-47.061h1.465l29.943,36.19l29.943-36.19h1.465V573.5H171.952z"/>
	<path fill="none" stroke="#000000" stroke-width="3" stroke-miterlimit="10" d="M209.038,574.163c-3.113,0-6.044-0.464-8.791-1.393   c-2.747-0.928-5.159-2.22-7.234-3.877c-2.076-1.657-3.694-3.557-4.853-5.7c-1.161-2.144-1.74-4.408-1.74-6.794   c0-2.43,0.595-4.717,1.786-6.86c1.19-2.144,2.823-4.044,4.899-5.7c2.075-1.657,4.487-2.95,7.234-3.878s5.646-1.392,8.699-1.392   c3.052,0,5.952,0.464,8.699,1.392s5.158,2.221,7.234,3.878c2.075,1.656,3.708,3.557,4.899,5.7s1.786,4.431,1.786,6.86   c0,2.386-0.581,4.65-1.74,6.794c-1.161,2.144-2.793,4.043-4.899,5.7c-2.106,1.657-4.519,2.949-7.234,3.877   C215.066,573.699,212.151,574.163,209.038,574.163z M188.251,556.531c0,2.961,0.93,5.679,2.793,8.153   c1.861,2.475,4.364,4.452,7.509,5.932c3.144,1.481,6.607,2.221,10.393,2.221c3.785,0,7.264-0.751,10.439-2.253   c3.173-1.502,5.708-3.514,7.601-6.032c1.891-2.519,2.838-5.258,2.838-8.219c0-2.96-0.947-5.689-2.838-8.187   c-1.893-2.496-4.411-4.495-7.555-5.998c-3.145-1.502-6.609-2.254-10.393-2.254c-3.725,0-7.174,0.763-10.348,2.287   c-3.175,1.524-5.708,3.546-7.6,6.064C189.197,550.765,188.251,553.527,188.251,556.531z"/>
	<path fill="none" stroke="#000000" stroke-width="3" stroke-miterlimit="10" d="M257.112,573.5l-20.695-34.4h2.015l19.504,32.479   l19.504-32.479h2.015l-20.695,34.4H257.112z"/>
	<path fill="none" stroke="#000000" stroke-width="3" stroke-miterlimit="10" d="M289.436,530.217v-5.104h1.832v5.104H289.436z    M289.436,573.5v-34.4h1.832v34.4H289.436z"/>
	<path fill="none" stroke="#000000" stroke-width="3" stroke-miterlimit="10" d="M326.063,574.163c-3.113,0-6.06-0.476-8.836-1.426   c-2.779-0.949-5.22-2.253-7.326-3.91c-2.105-1.657-3.754-3.579-4.944-5.767s-1.786-4.518-1.786-6.993   c0-3.225,1.008-6.164,3.022-8.815s4.716-4.761,8.104-6.33c3.388-1.568,7.157-2.353,11.309-2.353c4.213,0,8.043,0.795,11.492,2.386   c3.448,1.591,6.211,3.724,8.287,6.396c2.075,2.674,3.113,5.667,3.113,8.981c0,0.132,0,0.255,0,0.364c0,0.11,0,0.232,0,0.364   h-43.495c0.305,2.961,1.434,5.635,3.388,8.021c1.953,2.386,4.487,4.275,7.601,5.667c3.113,1.393,6.501,2.088,10.164,2.088   s7.081-0.673,10.256-2.021c3.174-1.348,5.433-3.082,6.776-5.203l1.739,0.331c-0.855,1.548-2.243,2.95-4.166,4.209   c-1.923,1.26-4.167,2.243-6.73,2.95C331.465,573.809,328.81,574.163,326.063,574.163z M305.002,555.736h41.572   c-0.244-3.093-1.313-5.821-3.205-8.187c-1.893-2.363-4.365-4.23-7.417-5.601c-3.053-1.369-6.472-2.055-10.256-2.055   c-3.725,0-7.112,0.686-10.164,2.055c-3.054,1.37-5.51,3.248-7.371,5.634C306.298,549.97,305.245,552.688,305.002,555.736z"/>
	<path fill="none" stroke="#000000" stroke-width="3" stroke-miterlimit="10" d="M360.31,573.5v-47.061h26.464   c2.686,0,5.142,0.409,7.371,1.226c2.228,0.818,4.15,1.912,5.769,3.281c1.617,1.37,2.885,2.895,3.801,4.573   c0.915,1.681,1.373,3.403,1.373,5.171c0,2.431-0.702,4.695-2.105,6.794c-1.405,2.099-3.343,3.834-5.815,5.203   c-2.472,1.37-5.356,2.144-8.653,2.319l16.483,18.493h-2.198l-16.482-18.493h-24.175V573.5H360.31z M362.141,553.682h25.273   c3.297,0,6.119-0.63,8.471-1.89c2.349-1.259,4.166-2.883,5.448-4.871c1.282-1.989,1.923-4.065,1.923-6.23   c0-2.254-0.732-4.363-2.197-6.33c-1.466-1.966-3.45-3.557-5.952-4.772c-2.504-1.215-5.281-1.823-8.333-1.823h-24.633V553.682z"/>
	<path fill="none" stroke="#000000" stroke-width="3" stroke-miterlimit="10" d="M435.488,574.163c-3.113,0-6.044-0.464-8.791-1.393   c-2.747-0.928-5.159-2.22-7.233-3.877c-2.076-1.657-3.694-3.557-4.854-5.7c-1.16-2.144-1.74-4.408-1.74-6.794   c0-2.43,0.596-4.717,1.786-6.86s2.822-4.044,4.898-5.7c2.075-1.657,4.487-2.95,7.234-3.878s5.646-1.392,8.699-1.392   c3.052,0,5.952,0.464,8.699,1.392s5.158,2.221,7.233,3.878c2.075,1.656,3.709,3.557,4.899,5.7s1.785,4.431,1.785,6.86   c0,2.386-0.58,4.65-1.739,6.794c-1.16,2.144-2.793,4.043-4.899,5.7c-2.105,1.657-4.519,2.949-7.233,3.877   C441.516,573.699,438.602,574.163,435.488,574.163z M414.702,556.531c0,2.961,0.93,5.679,2.793,8.153   c1.861,2.475,4.363,4.452,7.509,5.932c3.143,1.481,6.606,2.221,10.393,2.221c3.784,0,7.265-0.751,10.439-2.253   c3.173-1.502,5.707-3.514,7.6-6.032c1.892-2.519,2.839-5.258,2.839-8.219c0-2.96-0.947-5.689-2.839-8.187   c-1.893-2.496-4.411-4.495-7.555-5.998c-3.145-1.502-6.608-2.254-10.393-2.254c-3.725,0-7.174,0.763-10.348,2.287   c-3.175,1.524-5.709,3.546-7.601,6.064C415.647,550.765,414.702,553.527,414.702,556.531z"/>
	<path fill="none" stroke="#000000" stroke-width="3" stroke-miterlimit="10" d="M470.559,525.113h1.831v43.585   c0,1.291,0.55,2.315,1.648,3.071s2.564,1.134,4.396,1.134c0.671,0,1.479-0.055,2.427-0.166c0.945-0.109,1.815-0.253,2.609-0.431   l0.642,1.061c-0.794,0.177-1.832,0.354-3.113,0.53c-1.282,0.177-2.352,0.266-3.205,0.266c-2.138,0-3.878-0.502-5.22-1.502   c-1.344-1-2.015-2.324-2.015-3.971V525.113z"/>
	<path fill="none" stroke="#000000" stroke-width="3" stroke-miterlimit="10" d="M492.352,525.113h1.831v43.585   c0,1.291,0.55,2.315,1.648,3.071s2.564,1.134,4.396,1.134c0.671,0,1.479-0.055,2.427-0.166c0.945-0.109,1.815-0.253,2.609-0.431   l0.642,1.061c-0.794,0.177-1.832,0.354-3.113,0.53c-1.282,0.177-2.352,0.266-3.205,0.266c-2.138,0-3.878-0.502-5.22-1.502   c-1.344-1-2.015-2.324-2.015-3.971V525.113z"/>
</g>
</svg>