<svg xmlns="http://www.w3.org/2000/svg" xmlns:xlink="http://www.w3.org/1999/xlink" version="1.1" id="Layer_1" x="0px" y="0px" enable-background="new 0 0 400 400" xml:space="preserve" viewBox="83.69 31.65 232.61 121.64">
<g id="Layer_6">
	<g>
		<path fill="#FFFFFF" d="M235.592,76.085c-1.567-3.379-3.528-6.222-5.981-8.677c-9.915-6.643-20.961-9.921-33.047-9.921    c-7.55,0-15.255,1.291-22.901,3.839c-6.282,3.125-10.154,7.682-12.608,14.755H87.801c-1.477,0-2.678-1.201-2.678-2.678V35.757    c0-1.477,1.202-2.678,2.678-2.678h224.392c1.478,0,2.679,1.202,2.679,2.678v37.647c0,1.477-1.201,2.678-2.679,2.678h-76.601    V76.085L235.592,76.085z"/>
		<path fill="#191919" d="M312.192,34.512c0.686,0,1.244,0.559,1.244,1.245v37.651c0,0.686-0.559,1.245-1.244,1.245h-75.699    c-1.568-3.172-3.5-5.887-5.867-8.256l-0.201-0.201l-0.236-0.158c-9.935-6.623-21.25-9.984-33.623-9.984    c-7.707,0-15.563,1.316-23.355,3.915l-0.191,0.062l-0.184,0.092c-7.65,3.825-11.001,9.758-12.788,14.53H87.804    c-0.686,0-1.245-0.559-1.245-1.244V35.755c0-0.686,0.559-1.245,1.245-1.245L312.192,34.512 M312.192,31.645H87.804    c-2.271,0-4.111,1.841-4.111,4.112v37.651c0,2.271,1.841,4.11,4.111,4.11h74.288c1.924-6.047,5.111-11.373,12.026-14.831    c7.125-2.374,14.744-3.768,22.446-3.768c10.893,0,21.955,2.782,32.034,9.502c2.741,2.742,4.647,5.818,6.063,9.096h77.535    c2.272,0,4.111-1.841,4.111-4.11V35.756C316.303,33.486,314.463,31.645,312.192,31.645L312.192,31.645z"/>
	</g>
	<g id="Layer_7">
		<rect x="99.336" y="39.323" fill="#44668E" width="85.465" height="57.815"/>
		<rect x="213.937" y="39.323" fill="#A52929" width="85.466" height="57.815"/>
	</g>
	<g>
		<path fill="#FCFCFC" d="M219.946,105.438c-2.291,0-4.423-1.718-5.428-4.375c-8.566-22.64-13.051-22.64-14.521-22.64    s-5.955,0-14.521,22.64c-1.006,2.658-3.134,4.375-5.427,4.375h-66.142c-10.07,0-18.262-10.21-18.262-22.761V44.186    c0-6.125,3.937-11.108,8.777-11.108h191.152c4.84,0,8.778,4.984,8.778,11.108v38.492c0,12.55-8.194,22.761-18.265,22.761H219.946    L219.946,105.438z M226.911,41.895c-5.286,0-9.591,4.301-9.591,9.588v33.996c0,5.287,4.305,9.587,9.591,9.587h59.515    c5.286,0,9.588-4.301,9.588-9.587V51.483c0-5.287-4.302-9.588-9.588-9.588H226.911L226.911,41.895z M113.57,41.895    c-5.287,0-9.588,4.301-9.588,9.588v33.996c0,5.287,4.301,9.587,9.588,9.587h59.516c5.287,0,9.588-4.301,9.588-9.587V51.483    c0-5.287-4.301-9.588-9.588-9.588H113.57L113.57,41.895z"/>
		<path fill="#191919" d="M295.575,34.512c4.05,0,7.345,4.341,7.345,9.674v2.479v11.848v24.165c0,11.759-7.55,21.327-16.831,21.327    h-66.142c-1.688,0-3.293-1.354-4.085-3.45c-8.916-23.563-13.785-23.563-15.863-23.563c-2.08,0-6.949,0-15.863,23.563    c-0.792,2.097-2.397,3.45-4.086,3.45h-66.141c-9.279,0-16.832-9.569-16.832-21.327V58.514V46.667v-2.479    c0-5.334,3.294-9.675,7.344-9.675h2.019h187.113L295.575,34.512 M226.911,96.501h59.515c6.08,0,11.021-4.944,11.021-11.021V51.484    c0-6.079-4.943-11.022-11.021-11.022h-59.515c-6.08,0-11.021,4.943-11.021,11.022V85.48    C215.89,91.554,220.835,96.501,226.911,96.501 M113.57,96.501h59.516c6.079,0,11.022-4.944,11.022-11.021V51.484    c0-6.079-4.944-11.022-11.022-11.022H113.57c-6.078,0-11.022,4.943-11.022,11.022V85.48    C102.548,91.554,107.491,96.501,113.57,96.501 M295.575,31.645h-2.018H106.441h-2.019c-5.64,0-10.21,5.615-10.21,12.542v2.479    v11.848v24.165c0,13.362,8.82,24.196,19.699,24.196h66.141c2.911,0,5.54-2.06,6.768-5.303c2.977-7.868,8.832-21.712,13.182-21.712    s10.205,13.847,13.18,21.712c1.229,3.243,3.856,5.303,6.768,5.303h66.141c10.881,0,19.7-10.833,19.7-24.196V58.514V46.667v-2.479    C305.788,37.261,301.214,31.645,295.575,31.645L295.575,31.645z M226.911,93.634c-4.506,0-8.154-3.65-8.154-8.155V51.483    c0-4.505,3.648-8.155,8.154-8.155h59.515c4.504,0,8.155,3.65,8.155,8.155v33.996c0,4.504-3.651,8.155-8.155,8.155L226.911,93.634    L226.911,93.634z M113.57,93.634c-4.504,0-8.155-3.65-8.155-8.155V51.483c0-4.505,3.65-8.155,8.155-8.155h59.516    c4.505,0,8.154,3.65,8.154,8.155v33.996c0,4.504-3.65,8.155-8.154,8.155L113.57,93.634L113.57,93.634z"/>
	</g>
</g>
<rect x="51.405" y="297.548" fill="none" width="457.753" height="81.86"/>
<g enable-background="new    ">
	<path fill="#FAA427" stroke="#000000" stroke-width="2" stroke-miterlimit="10" d="M132.192,151.88v-27.307l-13.706,21.566h-0.696   l-13.705-21.566v27.307h-0.87v-29.11h0.696l14.228,22.386l14.228-22.386h0.696v29.11H132.192z"/>
	<path fill="#FAA427" stroke="#000000" stroke-width="2" stroke-miterlimit="10" d="M149.813,152.29   c-1.479,0-2.872-0.287-4.177-0.861c-1.306-0.574-2.452-1.374-3.438-2.398c-0.986-1.025-1.755-2.2-2.306-3.526   c-0.552-1.325-0.827-2.727-0.827-4.202c0-1.503,0.283-2.918,0.849-4.243c0.565-1.326,1.341-2.501,2.328-3.526   c0.985-1.025,2.132-1.824,3.437-2.398c1.306-0.574,2.683-0.861,4.134-0.861c1.45,0,2.828,0.287,4.133,0.861   c1.306,0.574,2.451,1.373,3.438,2.398s1.763,2.2,2.328,3.526c0.565,1.325,0.849,2.74,0.849,4.243c0,1.476-0.276,2.877-0.827,4.202   c-0.551,1.326-1.327,2.501-2.328,3.526c-1,1.024-2.146,1.824-3.437,2.398C152.678,152.003,151.293,152.29,149.813,152.29z    M139.937,141.384c0,1.831,0.442,3.513,1.327,5.043c0.885,1.531,2.073,2.754,3.568,3.669c1.493,0.917,3.139,1.374,4.938,1.374   s3.452-0.465,4.96-1.395c1.508-0.929,2.712-2.173,3.611-3.73s1.35-3.253,1.35-5.084s-0.45-3.52-1.35-5.063   s-2.096-2.781-3.589-3.711c-1.494-0.929-3.141-1.394-4.938-1.394c-1.77,0-3.409,0.472-4.917,1.414   c-1.508,0.943-2.712,2.193-3.611,3.752C140.386,137.816,139.937,139.525,139.937,141.384z"/>
	<path fill="#FAA427" stroke="#000000" stroke-width="2" stroke-miterlimit="10" d="M172.655,151.88l-9.833-21.279h0.957   l9.268,20.09l9.268-20.09h0.957l-9.833,21.279H172.655z"/>
	<path fill="#FAA427" stroke="#000000" stroke-width="2" stroke-miterlimit="10" d="M188.014,125.106v-3.157h0.87v3.157H188.014z    M188.014,151.88v-21.279h0.87v21.279H188.014z"/>
	<path fill="#FAA427" stroke="#000000" stroke-width="2" stroke-miterlimit="10" d="M205.417,152.29   c-1.479,0-2.879-0.295-4.198-0.882c-1.32-0.588-2.48-1.395-3.481-2.419c-1-1.025-1.783-2.214-2.35-3.567   c-0.565-1.353-0.848-2.794-0.848-4.325c0-1.995,0.479-3.813,1.436-5.453s2.24-2.945,3.851-3.915c1.609-0.971,3.4-1.456,5.373-1.456   c2.002,0,3.821,0.492,5.461,1.477c1.638,0.983,2.951,2.303,3.938,3.956c0.985,1.654,1.479,3.506,1.479,5.556   c0,0.082,0,0.157,0,0.226s0,0.144,0,0.226H195.41c0.145,1.831,0.681,3.484,1.609,4.961c0.928,1.476,2.132,2.645,3.611,3.505   c1.479,0.861,3.089,1.292,4.83,1.292c1.74,0,3.364-0.416,4.873-1.251c1.508-0.833,2.581-1.906,3.22-3.218l0.826,0.205   c-0.406,0.957-1.065,1.824-1.979,2.604c-0.914,0.778-1.979,1.387-3.198,1.824C207.984,152.07,206.723,152.29,205.417,152.29z    M195.41,140.892h19.753c-0.116-1.913-0.624-3.601-1.522-5.063c-0.899-1.462-2.074-2.617-3.524-3.465   c-1.451-0.847-3.075-1.271-4.873-1.271c-1.77,0-3.38,0.424-4.83,1.271c-1.45,0.848-2.617,2.01-3.502,3.485   C196.025,137.324,195.525,139.006,195.41,140.892z"/>
	<path fill="#FAA427" stroke="#000000" stroke-width="2" stroke-miterlimit="10" d="M233.262,151.88v-29.11h12.574   c1.276,0,2.443,0.253,3.503,0.759c1.058,0.506,1.972,1.183,2.74,2.029c0.769,0.848,1.371,1.791,1.806,2.829   c0.436,1.039,0.653,2.105,0.653,3.198c0,1.503-0.334,2.904-1.001,4.202c-0.668,1.299-1.588,2.372-2.763,3.219   c-1.175,0.848-2.546,1.326-4.112,1.435l7.832,11.439h-1.044l-7.832-11.439h-11.486v11.439H233.262z M234.132,139.621h12.009   c1.566,0,2.907-0.39,4.024-1.169c1.116-0.779,1.979-1.783,2.589-3.014c0.609-1.229,0.914-2.515,0.914-3.854   c0-1.395-0.349-2.699-1.045-3.916c-0.696-1.216-1.639-2.2-2.828-2.952c-1.189-0.751-2.509-1.127-3.959-1.127h-11.704V139.621z"/>
	<path fill="#FAA427" stroke="#000000" stroke-width="2" stroke-miterlimit="10" d="M268.982,152.29   c-1.479,0-2.871-0.287-4.177-0.861c-1.305-0.574-2.451-1.374-3.437-2.398c-0.987-1.025-1.756-2.2-2.307-3.526   c-0.551-1.325-0.826-2.727-0.826-4.202c0-1.503,0.282-2.918,0.848-4.243c0.566-1.326,1.342-2.501,2.328-3.526   s2.132-1.824,3.438-2.398c1.305-0.574,2.683-0.861,4.133-0.861s2.828,0.287,4.134,0.861s2.451,1.373,3.438,2.398   c0.985,1.025,1.762,2.2,2.327,3.526c0.565,1.325,0.849,2.74,0.849,4.243c0,1.476-0.276,2.877-0.826,4.202   c-0.552,1.326-1.327,2.501-2.328,3.526c-1.001,1.024-2.146,1.824-3.438,2.398S270.462,152.29,268.982,152.29z M259.106,141.384   c0,1.831,0.441,3.513,1.327,5.043c0.884,1.531,2.073,2.754,3.567,3.669c1.493,0.917,3.14,1.374,4.938,1.374   c1.798,0,3.451-0.465,4.96-1.395c1.508-0.929,2.712-2.173,3.611-3.73c0.898-1.558,1.349-3.253,1.349-5.084s-0.45-3.52-1.349-5.063   c-0.899-1.544-2.096-2.781-3.59-3.711c-1.494-0.929-3.14-1.394-4.938-1.394c-1.77,0-3.408,0.472-4.916,1.414   c-1.509,0.943-2.713,2.193-3.611,3.752C259.556,137.816,259.106,139.525,259.106,141.384z"/>
	<path fill="#FAA427" stroke="#000000" stroke-width="2" stroke-miterlimit="10" d="M285.646,121.949h0.87v26.961   c0,0.798,0.261,1.432,0.783,1.899c0.522,0.467,1.219,0.701,2.089,0.701c0.318,0,0.702-0.034,1.152-0.103   c0.449-0.068,0.863-0.157,1.24-0.267l0.305,0.656c-0.377,0.108-0.87,0.218-1.479,0.328c-0.609,0.108-1.117,0.164-1.522,0.164   c-1.016,0-1.843-0.311-2.48-0.93c-0.638-0.618-0.957-1.438-0.957-2.456V121.949z"/>
	<path fill="#FAA427" stroke="#000000" stroke-width="2" stroke-miterlimit="10" d="M296.002,121.949h0.87v26.961   c0,0.798,0.261,1.432,0.783,1.899c0.521,0.467,1.218,0.701,2.088,0.701c0.319,0,0.703-0.034,1.153-0.103   c0.449-0.068,0.862-0.157,1.24-0.267l0.304,0.656c-0.377,0.108-0.87,0.218-1.479,0.328c-0.609,0.108-1.117,0.164-1.523,0.164   c-1.016,0-1.842-0.311-2.479-0.93c-0.639-0.618-0.957-1.438-0.957-2.456V121.949z"/>
</g>
<g>
</g>
</svg>