<svg version="1.1" id="Layer_1" xmlns="http://www.w3.org/2000/svg" xmlns:xlink="http://www.w3.org/1999/xlink" x="0px" y="0px" enable-background="new 0 0 612 792" xml:space="preserve" viewBox="57.75 315.72 496.5 259.95">
<g id="Layer_6">
	<g>
		<path fill="#FFFFFF" d="M381.968,410.572c-3.342-7.211-7.526-13.281-12.767-18.521c-21.163-14.18-44.737-21.175-70.533-21.175    c-16.114,0-32.558,2.754-48.88,8.195c-13.409,6.67-21.671,16.396-26.91,31.492H66.53c-3.151,0-5.716-2.563-5.716-5.715v-80.354    c0-3.152,2.564-5.716,5.716-5.716h478.933c3.152,0,5.717,2.564,5.717,5.716v80.354c0,3.151-2.563,5.715-5.717,5.715H381.968    V410.572z"/>
		<path fill="#191919" d="M545.463,321.838c1.463,0,2.656,1.193,2.656,2.656v80.361c0,1.463-1.193,2.656-2.656,2.656H383.896    c-3.35-6.771-7.469-12.564-12.527-17.622l-0.429-0.428l-0.503-0.337c-21.205-14.137-45.354-21.31-71.764-21.31    c-16.445,0-33.214,2.809-49.848,8.354l-0.41,0.134l-0.392,0.196c-16.328,8.164-23.482,20.827-27.295,31.01H66.537    c-1.463,0-2.656-1.192-2.656-2.655v-80.36c0-1.463,1.193-2.656,2.656-2.656L545.463,321.838 M545.463,315.718H66.537    c-4.847,0-8.776,3.929-8.776,8.776v80.361c0,4.848,3.929,8.774,8.776,8.774h158.557c4.106-12.905,10.906-24.272,25.667-31.653    c15.208-5.067,31.469-8.042,47.907-8.042c23.25,0,46.861,5.937,68.373,20.282c5.851,5.852,9.92,12.417,12.943,19.413H545.47    c4.849,0,8.775-3.929,8.775-8.774v-80.361C554.239,319.647,550.311,315.718,545.463,315.718L545.463,315.718z"/>
	</g>
	<g id="Layer_7">
		<rect x="91.151" y="332.107" fill="#44668E" width="182.413" height="123.397"/>
		<rect x="335.749" y="332.107" fill="#A52929" width="182.413" height="123.397"/>
	</g>
	<g>
		<path fill="#FCFCFC" d="M348.577,473.222c-4.893,0-9.438-3.665-11.586-9.339c-18.28-48.322-27.853-48.322-30.991-48.322    s-12.711,0-30.992,48.322c-2.148,5.674-6.689,9.339-11.585,9.339h-141.17c-21.493,0-38.978-21.793-38.978-48.58v-82.155    c0-13.072,8.403-23.709,18.733-23.709h407.99c10.33,0,18.732,10.637,18.732,23.709v82.155c0,26.787-17.484,48.58-38.979,48.58    H348.577L348.577,473.222z M363.442,337.597c-11.285,0-20.468,9.18-20.468,20.465v72.559c0,11.285,9.183,20.465,20.468,20.465    h127.024c11.285,0,20.466-9.18,20.466-20.465v-72.559c0-11.285-9.181-20.465-20.466-20.465H363.442L363.442,337.597z     M121.531,337.597c-11.285,0-20.465,9.18-20.465,20.465v72.559c0,11.285,9.18,20.465,20.465,20.465h127.027    c11.285,0,20.465-9.18,20.465-20.465v-72.559c0-11.285-9.18-20.465-20.465-20.465H121.531L121.531,337.597z"/>
		<path fill="#191919" d="M509.998,321.838c8.642,0,15.673,9.266,15.673,20.649v5.293v25.288v51.573    c0,25.1-16.113,45.521-35.924,45.521h-141.17c-3.604,0-7.026-2.889-8.722-7.362c-19.026-50.294-29.42-50.294-33.855-50.294    c-4.438,0-14.829,0-33.856,50.294c-1.689,4.476-5.116,7.362-8.721,7.362h-141.17c-19.804,0-35.924-20.423-35.924-45.521v-51.573    V347.78v-5.293c0-11.383,7.032-20.649,15.673-20.649h4.309h399.367H509.998 M363.442,454.146h127.024    c12.977,0,23.525-10.551,23.525-23.523v-72.559c0-12.974-10.551-23.525-23.525-23.525H363.442    c-12.977,0-23.525,10.551-23.525,23.525v72.559C339.917,443.589,350.474,454.146,363.442,454.146 M121.531,454.146h127.027    c12.975,0,23.525-10.551,23.525-23.523v-72.559c0-12.974-10.551-23.525-23.525-23.525H121.531    c-12.974,0-23.525,10.551-23.525,23.525v72.559C98.006,443.589,108.557,454.146,121.531,454.146 M509.998,315.718h-4.309H106.316    h-4.308c-12.038,0-21.793,11.983-21.793,26.769v5.293v25.288v51.573c0,28.521,18.825,51.643,42.044,51.643h141.17    c6.212,0,11.824-4.396,14.443-11.316c6.353-16.793,18.85-46.341,28.133-46.341c9.284,0,21.781,29.554,28.134,46.341    c2.619,6.922,8.231,11.316,14.443,11.316h141.17c23.22,0,42.045-23.121,42.045-51.643v-51.573V347.78v-5.293    C531.791,327.707,522.03,315.718,509.998,315.718L509.998,315.718z M363.442,448.026c-9.614,0-17.405-7.791-17.405-17.405v-72.559    c0-9.614,7.791-17.405,17.405-17.405h127.024c9.615,0,17.405,7.791,17.405,17.405v72.559c0,9.614-7.79,17.405-17.405,17.405    H363.442L363.442,448.026z M121.531,448.026c-9.614,0-17.405-7.791-17.405-17.405v-72.559c0-9.614,7.791-17.405,17.405-17.405    h127.027c9.615,0,17.405,7.791,17.405,17.405v72.559c0,9.614-7.791,17.405-17.405,17.405H121.531L121.531,448.026z"/>
	</g>
</g>
<g enable-background="new    ">
	<g>
		<path d="M171.952,573.5v-44.145l-28.844,34.865h-1.465l-28.844-34.865V573.5h-1.832v-47.061h1.465l29.943,36.19l29.943-36.19    h1.465V573.5H171.952z"/>
		<path fill="#FAA427" d="M174.284,574h-2.832v-43.256l-28.109,33.977h-1.936l-0.15-0.182l-27.959-33.795V574h-2.832v-48.061h2.201    l0.15,0.182l29.558,35.725l29.708-35.906h2.201V574z M172.452,573h0.832v-46.061h-0.73l-30.179,36.475l-30.178-36.475h-0.73V573    h0.832v-45.033l29.58,35.754h0.995l29.58-35.754V573z"/>
	</g>
	<g>
		<path d="M209.038,574.163c-3.113,0-6.044-0.464-8.791-1.393c-2.747-0.928-5.159-2.22-7.234-3.877    c-2.076-1.657-3.694-3.557-4.853-5.7c-1.161-2.144-1.74-4.408-1.74-6.794c0-2.43,0.595-4.717,1.786-6.86    c1.19-2.144,2.823-4.044,4.899-5.7c2.075-1.657,4.487-2.95,7.234-3.878s5.646-1.392,8.699-1.392c3.052,0,5.952,0.464,8.699,1.392    s5.158,2.221,7.234,3.878c2.075,1.656,3.708,3.557,4.899,5.7s1.786,4.431,1.786,6.86c0,2.386-0.581,4.65-1.74,6.794    c-1.161,2.144-2.793,4.043-4.899,5.7c-2.106,1.657-4.519,2.949-7.234,3.877C215.066,573.699,212.151,574.163,209.038,574.163z     M188.251,556.531c0,2.961,0.93,5.679,2.793,8.153c1.861,2.475,4.364,4.452,7.509,5.932c3.144,1.481,6.607,2.221,10.393,2.221    c3.785,0,7.264-0.751,10.439-2.253c3.173-1.502,5.708-3.514,7.601-6.032c1.891-2.519,2.838-5.258,2.838-8.219    c0-2.96-0.947-5.689-2.838-8.187c-1.893-2.496-4.411-4.495-7.555-5.998c-3.145-1.502-6.609-2.254-10.393-2.254    c-3.725,0-7.174,0.763-10.348,2.287c-3.175,1.524-5.708,3.546-7.6,6.064C189.197,550.765,188.251,553.527,188.251,556.531z"/>
		<path fill="#FAA427" d="M209.038,574.663c-3.155,0-6.166-0.478-8.951-1.419c-2.792-0.942-5.276-2.275-7.386-3.96    c-2.121-1.692-3.796-3.662-4.981-5.854c-1.194-2.205-1.8-4.571-1.8-7.031c0-2.505,0.622-4.895,1.849-7.104    c1.216-2.191,2.907-4.159,5.024-5.848c2.111-1.687,4.596-3.019,7.386-3.961c2.786-0.94,5.767-1.418,8.859-1.418    s6.073,0.478,8.859,1.418c2.788,0.941,5.272,2.274,7.386,3.961c2.117,1.69,3.808,3.658,5.024,5.848    c1.227,2.209,1.849,4.599,1.849,7.104c0,2.456-0.605,4.822-1.8,7.031c-1.188,2.194-2.88,4.164-5.03,5.855    c-2.14,1.684-4.624,3.016-7.382,3.958C215.189,574.186,212.192,574.663,209.038,574.663z M209.038,539.069    c-2.984,0-5.856,0.459-8.539,1.365c-2.68,0.905-5.063,2.182-7.082,3.795c-2.015,1.607-3.621,3.476-4.774,5.553    c-1.143,2.058-1.723,4.284-1.723,6.617c0,2.292,0.565,4.498,1.679,6.556c1.121,2.073,2.71,3.939,4.726,5.548    c2.018,1.612,4.401,2.889,7.082,3.794c2.682,0.906,5.585,1.366,8.631,1.366c3.044,0,5.932-0.46,8.583-1.365    c2.651-0.906,5.036-2.184,7.087-3.797c2.042-1.607,3.646-3.473,4.769-5.546c1.114-2.062,1.679-4.268,1.679-6.556    c0-2.333-0.58-4.56-1.723-6.617c-1.153-2.076-2.759-3.944-4.774-5.553c-2.022-1.614-4.405-2.891-7.082-3.795    C214.895,539.528,212.022,539.069,209.038,539.069z M208.946,573.337c-3.844,0-7.412-0.764-10.606-2.269    c-3.203-1.507-5.792-3.554-7.695-6.083c-1.92-2.551-2.894-5.395-2.894-8.454c0-3.103,0.989-5.991,2.939-8.586    c1.931-2.571,4.55-4.662,7.784-6.215c3.228-1.55,6.782-2.336,10.564-2.336c3.84,0,7.409,0.774,10.608,2.303    c3.202,1.531,5.805,3.599,7.738,6.147c1.951,2.575,2.94,5.432,2.94,8.488c0,3.056-0.989,5.922-2.938,8.519    c-1.935,2.574-4.554,4.654-7.787,6.185C216.372,572.563,212.788,573.337,208.946,573.337z M209.038,540.395    c-3.631,0-7.04,0.753-10.131,2.238c-3.087,1.482-5.583,3.472-7.417,5.913c-1.817,2.418-2.739,5.104-2.739,7.985    c0,2.837,0.906,5.479,2.692,7.853c1.804,2.398,4.268,4.343,7.322,5.78c3.06,1.441,6.485,2.173,10.18,2.173    c3.692,0,7.132-0.742,10.225-2.205c3.084-1.46,5.579-3.438,7.415-5.881c1.817-2.419,2.738-5.083,2.738-7.918    c0-2.834-0.921-5.486-2.737-7.885c-1.835-2.42-4.315-4.388-7.372-5.849C216.152,541.137,212.728,540.395,209.038,540.395z"/>
	</g>
	<g>
		<path d="M257.112,573.5l-20.695-34.4h2.015l19.504,32.479l19.504-32.479h2.015l-20.695,34.4H257.112z"/>
		<path fill="#FAA427" d="M259.043,574h-2.214l-21.296-35.4h3.182l19.221,32.007l19.221-32.007h3.182L259.043,574z M257.395,573    h1.083l20.093-33.4h-0.847l-19.788,32.949L238.149,539.6h-0.847L257.395,573z"/>
	</g>
	<g>
		<path d="M289.436,530.217v-5.104h1.832v5.104H289.436z M289.436,573.5v-34.4h1.832v34.4H289.436z"/>
		<path fill="#FAA427" d="M291.767,574h-2.832v-35.4h2.832V574z M289.936,573h0.832v-33.4h-0.832V573z M291.767,530.717h-2.832    v-6.104h2.832V530.717z M289.936,529.717h0.832v-4.104h-0.832V529.717z"/>
	</g>
	<g>
		<path d="M326.063,574.163c-3.113,0-6.06-0.476-8.836-1.426c-2.779-0.949-5.22-2.253-7.326-3.91    c-2.105-1.657-3.754-3.579-4.944-5.767s-1.786-4.518-1.786-6.993c0-3.225,1.008-6.164,3.022-8.815s4.716-4.761,8.104-6.33    c3.388-1.568,7.157-2.353,11.309-2.353c4.213,0,8.043,0.795,11.492,2.386c3.448,1.591,6.211,3.724,8.287,6.396    c2.075,2.674,3.113,5.667,3.113,8.981c0,0.132,0,0.255,0,0.364c0,0.11,0,0.232,0,0.364h-43.495    c0.305,2.961,1.434,5.635,3.388,8.021c1.953,2.386,4.487,4.275,7.601,5.667c3.113,1.393,6.501,2.088,10.164,2.088    s7.081-0.673,10.256-2.021c3.174-1.348,5.433-3.082,6.776-5.203l1.739,0.331c-0.855,1.548-2.243,2.95-4.166,4.209    c-1.923,1.26-4.167,2.243-6.73,2.95C331.465,573.809,328.81,574.163,326.063,574.163z M305.002,555.736h41.572    c-0.244-3.093-1.313-5.821-3.205-8.187c-1.893-2.363-4.365-4.23-7.417-5.601c-3.053-1.369-6.472-2.055-10.256-2.055    c-3.725,0-7.112,0.686-10.164,2.055c-3.054,1.37-5.51,3.248-7.371,5.634C306.298,549.97,305.245,552.688,305.002,555.736z"/>
		<path fill="#FAA427" d="M326.063,574.663c-3.154,0-6.182-0.488-8.998-1.453c-2.815-0.961-5.33-2.304-7.474-3.99    c-2.149-1.692-3.857-3.684-5.074-5.92c-1.226-2.252-1.847-4.686-1.847-7.232c0-3.322,1.051-6.39,3.125-9.118    c2.054-2.703,4.844-4.884,8.292-6.481c3.438-1.592,7.313-2.398,11.519-2.398c4.266,0,8.203,0.818,11.701,2.432    c3.506,1.617,6.356,3.819,8.473,6.544c2.136,2.752,3.219,5.877,3.219,9.288v1.229h-43.431c0.373,2.635,1.45,5.056,3.21,7.204    c1.895,2.314,4.391,4.174,7.418,5.527c3.032,1.356,6.384,2.044,9.96,2.044c3.58,0,6.965-0.667,10.061-1.981    c3.063-1.301,5.268-2.987,6.549-5.011l0.183-0.287l2.751,0.523l-0.334,0.604c-0.892,1.612-2.348,3.088-4.33,4.385    c-1.956,1.282-4.269,2.296-6.871,3.015C331.563,574.3,328.838,574.663,326.063,574.663z M325.604,539.069    c-4.059,0-7.793,0.776-11.099,2.307c-3.298,1.527-5.961,3.606-7.915,6.179c-1.938,2.55-2.921,5.414-2.921,8.513    c0,2.378,0.581,4.65,1.725,6.754c1.152,2.116,2.772,4.005,4.815,5.613c2.054,1.615,4.469,2.904,7.178,3.829    c2.713,0.929,5.631,1.399,8.675,1.399c2.686,0,5.321-0.351,7.834-1.043c2.502-0.689,4.72-1.661,6.589-2.886    c1.592-1.042,2.813-2.194,3.639-3.435l-0.703-0.134c-1.412,2.07-3.703,3.788-6.815,5.109c-3.22,1.368-6.736,2.062-10.451,2.062    c-3.718,0-7.206-0.717-10.368-2.132c-3.171-1.417-5.789-3.37-7.783-5.807c-2.008-2.451-3.185-5.238-3.499-8.286l-0.057-0.551    h43.549v-0.229c0-3.185-1.012-6.103-3.008-8.675c-2.018-2.598-4.743-4.7-8.102-6.249    C333.521,539.856,329.725,539.069,325.604,539.069z M347.115,556.236H304.46l0.043-0.54c0.25-3.134,1.348-5.968,3.263-8.421    c1.904-2.44,4.448-4.386,7.561-5.782c3.104-1.393,6.593-2.099,10.369-2.099c3.836,0,7.355,0.706,10.461,2.099    c3.11,1.396,5.668,3.329,7.603,5.744c1.947,2.436,3.063,5.281,3.313,8.46L347.115,556.236z M305.553,555.236h40.472    c-0.313-2.758-1.336-5.236-3.046-7.374c-1.834-2.29-4.267-4.126-7.231-5.457c-2.975-1.334-6.356-2.011-10.051-2.011    c-3.635,0-6.985,0.677-9.959,2.011c-2.963,1.329-5.38,3.175-7.182,5.485C306.873,550.046,305.864,552.515,305.553,555.236z"/>
	</g>
	<g>
		<path d="M360.31,573.5v-47.061h26.464c2.686,0,5.142,0.409,7.371,1.226c2.228,0.818,4.15,1.912,5.769,3.281    c1.617,1.37,2.885,2.895,3.801,4.573c0.915,1.681,1.373,3.403,1.373,5.171c0,2.431-0.702,4.695-2.105,6.794    c-1.405,2.099-3.343,3.834-5.815,5.203c-2.472,1.37-5.356,2.144-8.653,2.319l16.483,18.493h-2.198l-16.482-18.493h-24.175V573.5    H360.31z M362.141,553.682h25.273c3.297,0,6.119-0.63,8.471-1.89c2.349-1.259,4.166-2.883,5.448-4.871    c1.282-1.989,1.923-4.065,1.923-6.23c0-2.254-0.732-4.363-2.197-6.33c-1.466-1.966-3.45-3.557-5.952-4.772    c-2.504-1.215-5.281-1.823-8.333-1.823h-24.633V553.682z"/>
		<path fill="#FAA427" d="M406.111,574h-3.538l-16.482-18.493h-23.45V574h-2.831v-48.061h26.964c2.729,0,5.267,0.423,7.543,1.256    c2.272,0.835,4.265,1.969,5.92,3.369c1.658,1.405,2.976,2.991,3.916,4.716c0.952,1.748,1.435,3.568,1.435,5.41    c0,2.52-0.736,4.898-2.189,7.072c-1.445,2.158-3.46,3.962-5.989,5.362c-2.269,1.257-4.904,2.031-7.848,2.307L406.111,574z     M403.022,573h0.858l-16.434-18.438l1.039-0.055c3.204-0.171,6.043-0.931,8.438-2.258c2.389-1.322,4.286-3.02,5.643-5.044    c1.341-2.005,2.021-4.197,2.021-6.516c0-1.673-0.441-3.333-1.313-4.932c-0.881-1.615-2.121-3.106-3.685-4.431    c-1.565-1.325-3.456-2.399-5.618-3.193c-2.165-0.793-4.587-1.195-7.198-1.195H360.81V573h0.831v-18.493h24.899L403.022,573z     M387.414,554.182h-25.773v-26.917h25.133c3.112,0,5.989,0.63,8.551,1.873c2.564,1.246,4.628,2.902,6.135,4.924    c1.524,2.046,2.297,4.276,2.297,6.629c0,2.252-0.674,4.439-2.003,6.501c-1.322,2.051-3.217,3.747-5.632,5.041    C393.707,553.526,390.777,554.182,387.414,554.182z M362.641,553.182h24.773c3.197,0,5.968-0.616,8.234-1.83    c2.264-1.214,4.035-2.795,5.265-4.701c1.223-1.897,1.843-3.903,1.843-5.96c0-2.133-0.706-4.162-2.099-6.031    c-1.41-1.892-3.352-3.446-5.77-4.622c-2.425-1.176-5.154-1.772-8.114-1.772h-24.133V553.182z"/>
	</g>
	<g>
		<path d="M435.488,574.163c-3.113,0-6.044-0.464-8.791-1.393c-2.747-0.928-5.159-2.22-7.233-3.877    c-2.076-1.657-3.694-3.557-4.854-5.7c-1.16-2.144-1.74-4.408-1.74-6.794c0-2.43,0.596-4.717,1.786-6.86s2.822-4.044,4.898-5.7    c2.075-1.657,4.487-2.95,7.234-3.878s5.646-1.392,8.699-1.392c3.052,0,5.952,0.464,8.699,1.392s5.158,2.221,7.233,3.878    c2.075,1.656,3.709,3.557,4.899,5.7s1.785,4.431,1.785,6.86c0,2.386-0.58,4.65-1.739,6.794c-1.16,2.144-2.793,4.043-4.899,5.7    c-2.105,1.657-4.519,2.949-7.233,3.877C441.516,573.699,438.602,574.163,435.488,574.163z M414.702,556.531    c0,2.961,0.93,5.679,2.793,8.153c1.861,2.475,4.363,4.452,7.509,5.932c3.143,1.481,6.606,2.221,10.393,2.221    c3.784,0,7.265-0.751,10.439-2.253c3.173-1.502,5.707-3.514,7.6-6.032c1.892-2.519,2.839-5.258,2.839-8.219    c0-2.96-0.947-5.689-2.839-8.187c-1.893-2.496-4.411-4.495-7.555-5.998c-3.145-1.502-6.608-2.254-10.393-2.254    c-3.725,0-7.174,0.763-10.348,2.287c-3.175,1.524-5.709,3.546-7.601,6.064C415.647,550.765,414.702,553.527,414.702,556.531z"/>
		<path fill="#FAA427" d="M435.488,574.663c-3.154,0-6.166-0.478-8.951-1.419c-2.792-0.942-5.276-2.275-7.386-3.96    c-2.12-1.692-3.796-3.662-4.98-5.853c-1.195-2.208-1.801-4.573-1.801-7.032c0-2.504,0.622-4.894,1.849-7.104    c1.218-2.192,2.908-4.16,5.024-5.848c2.11-1.687,4.596-3.019,7.386-3.961c2.786-0.94,5.767-1.418,8.859-1.418    s6.073,0.478,8.859,1.418c2.789,0.941,5.273,2.274,7.386,3.961c2.117,1.689,3.808,3.657,5.024,5.848    c1.226,2.209,1.848,4.599,1.848,7.104c0,2.458-0.605,4.824-1.8,7.032c-1.187,2.193-2.879,4.163-5.029,5.854    c-2.138,1.683-4.621,3.015-7.381,3.957C441.639,574.186,438.643,574.663,435.488,574.663z M435.488,539.069    c-2.983,0-5.856,0.459-8.539,1.365c-2.68,0.905-5.063,2.182-7.082,3.795c-2.014,1.606-3.62,3.475-4.773,5.553    c-1.144,2.059-1.724,4.285-1.724,6.617c0,2.291,0.565,4.496,1.68,6.556c1.121,2.073,2.711,3.939,4.726,5.548    c2.018,1.612,4.4,2.889,7.082,3.794c2.682,0.906,5.585,1.366,8.631,1.366c3.044,0,5.932-0.46,8.583-1.365    c2.653-0.907,5.037-2.185,7.086-3.797c2.043-1.607,3.647-3.473,4.77-5.546c1.114-2.06,1.679-4.266,1.679-6.556    c0-2.333-0.579-4.56-1.723-6.617c-1.152-2.076-2.759-3.944-4.773-5.553c-2.021-1.613-4.403-2.891-7.082-3.795    C441.345,539.528,438.472,539.069,435.488,539.069z M435.396,573.337c-3.845,0-7.413-0.764-10.605-2.269    c-3.203-1.507-5.793-3.553-7.695-6.083c-1.92-2.55-2.894-5.395-2.894-8.454c0-3.103,0.988-5.991,2.938-8.586    c1.931-2.57,4.55-4.661,7.783-6.215c3.229-1.55,6.782-2.336,10.564-2.336c3.84,0,7.409,0.774,10.608,2.303    c3.202,1.531,5.806,3.6,7.737,6.147c1.951,2.575,2.94,5.432,2.94,8.488s-0.989,5.923-2.939,8.519    c-1.934,2.573-4.553,4.654-7.785,6.185C442.822,572.563,439.238,573.337,435.396,573.337z M435.488,540.395    c-3.631,0-7.04,0.753-10.131,2.238c-3.088,1.482-5.584,3.472-7.418,5.913c-1.816,2.418-2.737,5.104-2.737,7.985    c0,2.838,0.906,5.479,2.692,7.853c1.805,2.398,4.268,4.344,7.322,5.78c3.059,1.441,6.483,2.173,10.18,2.173    c3.692,0,7.133-0.742,10.226-2.205c3.084-1.46,5.579-3.438,7.414-5.881c1.816-2.419,2.738-5.083,2.738-7.918    c0-2.834-0.921-5.486-2.737-7.885c-1.835-2.419-4.314-4.387-7.372-5.849C442.602,541.137,439.178,540.395,435.488,540.395z"/>
	</g>
	<g>
		<path d="M470.559,525.113h1.831v43.585c0,1.291,0.55,2.315,1.648,3.071s2.564,1.134,4.396,1.134c0.671,0,1.479-0.055,2.427-0.166    c0.945-0.109,1.815-0.253,2.609-0.431l0.642,1.061c-0.794,0.177-1.832,0.354-3.113,0.53c-1.282,0.177-2.352,0.266-3.205,0.266    c-2.138,0-3.878-0.502-5.22-1.502c-1.344-1-2.015-2.324-2.015-3.971V525.113z"/>
		<path fill="#FAA427" d="M477.793,574.663c-2.236,0-4.093-0.539-5.519-1.601c-1.47-1.095-2.216-2.565-2.216-4.372v-44.077h2.831    v44.085c0,1.127,0.469,1.996,1.432,2.659c1.009,0.694,2.393,1.046,4.112,1.046c0.653,0,1.45-0.055,2.368-0.163    c0.926-0.106,1.786-0.248,2.559-0.422l0.351-0.078l1.188,1.964l-0.68,0.151c-0.803,0.179-1.864,0.359-3.153,0.537    C479.766,574.572,478.664,574.663,477.793,574.663z M471.059,525.613v43.077c0,1.494,0.593,2.662,1.813,3.569    c1.249,0.932,2.904,1.403,4.921,1.403c0.825,0,1.881-0.088,3.137-0.261c0.921-0.127,1.721-0.255,2.387-0.383l-0.09-0.149    c-0.713,0.146-1.487,0.269-2.309,0.364c-0.956,0.112-1.792,0.169-2.484,0.169c-1.926,0-3.5-0.411-4.679-1.222    c-1.237-0.852-1.865-2.023-1.865-3.483v-43.085H471.059z"/>
	</g>
	<g>
		<path d="M492.352,525.113h1.831v43.585c0,1.291,0.55,2.315,1.648,3.071s2.564,1.134,4.396,1.134c0.671,0,1.479-0.055,2.427-0.166    c0.945-0.109,1.815-0.253,2.609-0.431l0.642,1.061c-0.794,0.177-1.832,0.354-3.113,0.53c-1.282,0.177-2.352,0.266-3.205,0.266    c-2.138,0-3.878-0.502-5.22-1.502c-1.344-1-2.015-2.324-2.015-3.971V525.113z"/>
		<path fill="#FAA427" d="M499.586,574.663c-2.236,0-4.093-0.539-5.519-1.601c-1.47-1.095-2.216-2.565-2.216-4.372v-44.077h2.831    v44.085c0,1.127,0.469,1.996,1.432,2.659c1.009,0.694,2.393,1.046,4.112,1.046c0.653,0,1.45-0.055,2.368-0.163    c0.926-0.106,1.786-0.248,2.559-0.422l0.351-0.078l1.188,1.964l-0.68,0.151c-0.803,0.179-1.864,0.359-3.153,0.537    C501.559,574.572,500.457,574.663,499.586,574.663z M492.852,525.613v43.077c0,1.494,0.593,2.662,1.813,3.569    c1.249,0.932,2.904,1.403,4.921,1.403c0.825,0,1.881-0.088,3.137-0.261c0.921-0.127,1.721-0.255,2.387-0.383l-0.09-0.149    c-0.713,0.146-1.487,0.269-2.309,0.364c-0.956,0.112-1.792,0.169-2.484,0.169c-1.926,0-3.5-0.411-4.679-1.222    c-1.237-0.852-1.865-2.023-1.865-3.483v-43.085H492.852z"/>
	</g>
</g>
<g enable-background="new    ">
	<g>
		<polygon fill="#FAA427" points="175.284,575 170.452,575 170.452,533.521 143.814,565.721 140.937,565.721 114.298,533.521     114.298,575 109.467,575 109.467,524.939 113.138,524.939 142.375,560.276 171.613,524.939 175.284,524.939   "/>
	</g>
	<g>
		<path fill="#FAA427" d="M209.038,575.663c-3.264,0-6.383-0.495-9.271-1.472c-2.902-0.979-5.489-2.368-7.689-4.126    c-2.226-1.776-3.988-3.849-5.236-6.159c-1.274-2.353-1.92-4.879-1.92-7.507c0-2.677,0.664-5.229,1.974-7.589    c1.28-2.306,3.055-4.373,5.275-6.145c2.201-1.758,4.789-3.146,7.689-4.126c2.889-0.976,5.978-1.471,9.179-1.471    s6.29,0.495,9.179,1.471c2.898,0.979,5.485,2.367,7.689,4.127c2.22,1.771,3.995,3.839,5.275,6.144    c1.31,2.359,1.974,4.912,1.974,7.589c0,2.624-0.646,5.15-1.92,7.507c-1.253,2.315-3.033,4.39-5.291,6.166    c-2.229,1.754-4.812,3.139-7.677,4.118C215.408,575.167,212.303,575.663,209.038,575.663z M209.038,541.395    c-3.48,0-6.743,0.72-9.698,2.14c-2.941,1.412-5.313,3.301-7.05,5.612c-1.708,2.272-2.538,4.688-2.538,7.385    c0,2.652,0.815,5.024,2.491,7.251c1.706,2.268,4.043,4.109,6.949,5.477c2.926,1.379,6.208,2.078,9.754,2.078    c3.543,0,6.84-0.71,9.797-2.108c2.936-1.39,5.306-3.267,7.043-5.578c1.708-2.273,2.538-4.667,2.538-7.317    c0-2.647-0.829-5.029-2.534-7.281c-1.737-2.29-4.095-4.158-7.006-5.55C215.856,542.104,212.577,541.395,209.038,541.395z"/>
	</g>
	<g>
		<polygon fill="#FAA427" points="259.609,575 256.264,575 233.765,537.6 239.281,537.6 257.937,568.664 276.592,537.6     282.108,537.6   "/>
	</g>
	<g>
		<path fill="#FAA427" d="M292.767,575h-4.832v-37.4h4.832V575z M292.767,531.717h-4.832v-8.104h4.832V531.717z"/>
	</g>
	<g>
		<path fill="#FAA427" d="M326.063,575.663c-3.265,0-6.4-0.507-9.321-1.507c-2.923-0.998-5.536-2.395-7.769-4.15    c-2.258-1.776-4.052-3.872-5.334-6.229c-1.307-2.4-1.969-4.994-1.969-7.71c0-3.545,1.12-6.816,3.328-9.723    c2.154-2.835,5.07-5.117,8.667-6.784c3.571-1.653,7.588-2.491,11.939-2.491c4.412,0,8.489,0.849,12.12,2.523    c3.652,1.686,6.628,3.986,8.844,6.839c2.275,2.932,3.429,6.263,3.429,9.901v2.229h-43.229c0.466,2.014,1.398,3.881,2.781,5.57    c1.796,2.193,4.169,3.959,7.053,5.248c2.903,1.299,6.117,1.957,9.552,1.957c3.445,0,6.698-0.64,9.669-1.902    c2.874-1.22,4.925-2.776,6.096-4.625l0.546-0.861l4.775,0.909l-1.002,1.812c-0.971,1.757-2.537,3.351-4.657,4.738    c-2.043,1.339-4.45,2.396-7.153,3.142C331.742,575.288,328.928,575.663,326.063,575.663z M306.715,554.236h38.148    c-0.408-2.134-1.287-4.026-2.666-5.75c-1.732-2.164-4.041-3.903-6.859-5.169c-2.845-1.275-6.089-1.923-9.642-1.923    c-3.492,0-6.705,0.647-9.55,1.923c-2.813,1.263-5.102,3.008-6.803,5.188C307.988,550.242,307.121,552.129,306.715,554.236z"/>
	</g>
	<g>
		<path fill="#FAA427" d="M408.343,575h-6.218l-16.482-18.493h-22.002V575h-4.831v-50.061h27.964c2.847,0,5.5,0.443,7.887,1.317    c2.384,0.875,4.477,2.068,6.222,3.544c1.753,1.485,3.148,3.168,4.148,5c1.033,1.897,1.557,3.879,1.557,5.89    c0,2.721-0.794,5.287-2.358,7.628c-1.535,2.292-3.667,4.203-6.336,5.682c-1.885,1.045-4.006,1.772-6.33,2.175L408.343,575z     M363.641,552.182h23.773c3.03,0,5.642-0.576,7.763-1.712c2.112-1.132,3.759-2.6,4.896-4.361c1.133-1.758,1.684-3.53,1.684-5.418    c0-1.939-0.621-3.717-1.9-5.435c-1.313-1.761-3.132-3.215-5.404-4.318c-2.287-1.11-4.87-1.673-7.678-1.673h-23.133V552.182z"/>
	</g>
	<g>
		<path fill="#FAA427" d="M435.488,575.663c-3.264,0-6.383-0.495-9.271-1.472c-2.902-0.98-5.489-2.368-7.689-4.126    c-2.226-1.776-3.987-3.849-5.236-6.158c-1.274-2.355-1.921-4.881-1.921-7.508c0-2.676,0.664-5.229,1.975-7.589    c1.281-2.308,3.057-4.375,5.274-6.145c2.202-1.758,4.789-3.146,7.69-4.126c2.889-0.976,5.977-1.471,9.179-1.471    s6.29,0.495,9.179,1.471c2.899,0.979,5.487,2.367,7.689,4.127c2.221,1.771,3.995,3.839,5.275,6.144    c1.31,2.358,1.974,4.912,1.974,7.589c0,2.626-0.646,5.151-1.92,7.508c-1.253,2.314-3.033,4.389-5.291,6.165    c-2.227,1.753-4.81,3.138-7.676,4.117C441.857,575.167,438.752,575.663,435.488,575.663z M435.488,541.395    c-3.479,0-6.743,0.72-9.698,2.14c-2.942,1.412-5.314,3.301-7.051,5.612c-1.707,2.272-2.537,4.688-2.537,7.385    c0,2.653,0.814,5.024,2.491,7.251c1.706,2.268,4.043,4.11,6.949,5.477c2.925,1.379,6.207,2.078,9.754,2.078    c3.544,0,6.84-0.71,9.798-2.108c2.937-1.391,5.306-3.267,7.042-5.578c1.708-2.273,2.538-4.667,2.538-7.317    c0-2.647-0.829-5.029-2.534-7.281c-1.737-2.29-4.095-4.158-7.007-5.55C442.307,542.104,439.027,541.395,435.488,541.395z"/>
	</g>
	<g>
		<path fill="#FAA427" d="M477.793,575.663c-2.456,0-4.514-0.605-6.116-1.799c-1.713-1.275-2.618-3.064-2.618-5.174v-45.077h4.831    v45.085c0,0.794,0.308,1.36,0.999,1.836c0.838,0.576,2.031,0.869,3.545,0.869c0.614,0,1.372-0.053,2.252-0.156    c0.892-0.103,1.718-0.239,2.456-0.404l1.053-0.235l2.281,3.771l-2.038,0.453c-0.83,0.185-1.918,0.371-3.234,0.553    C479.838,575.571,478.723,575.663,477.793,575.663z"/>
	</g>
	<g>
		<path fill="#FAA427" d="M499.586,575.663c-2.456,0-4.514-0.605-6.116-1.799c-1.713-1.275-2.618-3.064-2.618-5.174v-45.077h4.831    v45.085c0,0.794,0.308,1.36,0.999,1.836c0.838,0.576,2.031,0.869,3.545,0.869c0.614,0,1.372-0.053,2.252-0.156    c0.892-0.103,1.718-0.239,2.456-0.404l1.053-0.235l2.281,3.771l-2.038,0.453c-0.83,0.185-1.918,0.371-3.234,0.553    C501.631,575.571,500.516,575.663,499.586,575.663z"/>
	</g>
</g>
</svg>