<svg xmlns="http://www.w3.org/2000/svg" xmlns:xlink="http://www.w3.org/1999/xlink" version="1.1" id="Layer_1" x="0px" y="0px" enable-background="new 0 0 612 792" xml:space="preserve" viewBox="57.76 315.72 496.48 160.57">
<g id="Layer_6">
	<g>
		<path fill="#FFFFFF" d="M381.968,410.572c-3.342-7.211-7.525-13.281-12.767-18.521c-21.163-14.18-44.737-21.175-70.533-21.175    c-16.114,0-32.558,2.754-48.88,8.195c-13.409,6.67-21.671,16.396-26.91,31.492H66.53c-3.151,0-5.716-2.563-5.716-5.715v-80.354    c0-3.152,2.564-5.716,5.716-5.716h478.933c3.152,0,5.717,2.564,5.717,5.716v80.354c0,3.151-2.563,5.715-5.717,5.715H381.968    V410.572z"/>
		<path fill="#191919" d="M545.463,321.838c1.463,0,2.656,1.193,2.656,2.656v80.361c0,1.463-1.193,2.656-2.656,2.656H383.896    c-3.351-6.771-7.47-12.564-12.527-17.623l-0.429-0.428l-0.503-0.337c-21.205-14.137-45.354-21.31-71.765-21.31    c-16.445,0-33.214,2.809-49.848,8.354l-0.41,0.134l-0.392,0.196c-16.328,8.164-23.482,20.827-27.295,31.01H66.537    c-1.463,0-2.656-1.191-2.656-2.654v-80.36c0-1.463,1.193-2.656,2.656-2.656L545.463,321.838 M545.463,315.718H66.537    c-4.847,0-8.776,3.929-8.776,8.776v80.361c0,4.848,3.929,8.773,8.776,8.773h158.557c4.106-12.904,10.906-24.272,25.667-31.653    c15.208-5.067,31.469-8.042,47.907-8.042c23.25,0,46.861,5.937,68.373,20.282c5.851,5.853,9.92,12.417,12.943,19.413H545.47    c4.85,0,8.775-3.929,8.775-8.773v-80.361C554.239,319.647,550.311,315.718,545.463,315.718L545.463,315.718z"/>
	</g>
	<g id="Layer_7">
		<rect x="91.151" y="332.107" fill="#44668E" width="182.413" height="123.397"/>
		<rect x="335.749" y="332.107" fill="#A52929" width="182.413" height="123.397"/>
	</g>
	<g>
		<path fill="#FCFCFC" d="M348.577,473.222c-4.894,0-9.438-3.665-11.586-9.339c-18.28-48.322-27.854-48.322-30.991-48.322    s-12.711,0-30.992,48.322c-2.148,5.674-6.689,9.339-11.585,9.339h-141.17c-21.493,0-38.978-21.793-38.978-48.58v-82.155    c0-13.072,8.403-23.709,18.733-23.709h407.99c10.33,0,18.732,10.637,18.732,23.709v82.155c0,26.787-17.484,48.58-38.979,48.58    H348.577L348.577,473.222z M363.442,337.597c-11.285,0-20.469,9.18-20.469,20.465v72.559c0,11.285,9.184,20.465,20.469,20.465    h127.023c11.285,0,20.466-9.18,20.466-20.465v-72.559c0-11.285-9.181-20.465-20.466-20.465H363.442L363.442,337.597z     M121.531,337.597c-11.285,0-20.465,9.18-20.465,20.465v72.559c0,11.285,9.18,20.465,20.465,20.465h127.027    c11.285,0,20.465-9.18,20.465-20.465v-72.559c0-11.285-9.18-20.465-20.465-20.465H121.531L121.531,337.597z"/>
		<path fill="#191919" d="M509.998,321.838c8.642,0,15.673,9.266,15.673,20.649v5.293v25.288v51.573    c0,25.101-16.113,45.521-35.924,45.521h-141.17c-3.604,0-7.026-2.889-8.722-7.362c-19.026-50.294-29.421-50.294-33.855-50.294    c-4.438,0-14.829,0-33.856,50.294c-1.689,4.477-5.116,7.362-8.721,7.362h-141.17c-19.804,0-35.924-20.423-35.924-45.521v-51.573    V347.78v-5.293c0-11.383,7.032-20.649,15.673-20.649h4.309h399.367H509.998 M363.442,454.146h127.023    c12.978,0,23.525-10.551,23.525-23.522v-72.559c0-12.974-10.551-23.525-23.525-23.525H363.442    c-12.978,0-23.525,10.551-23.525,23.525v72.559C339.917,443.589,350.474,454.146,363.442,454.146 M121.531,454.146h127.027    c12.975,0,23.525-10.551,23.525-23.522v-72.559c0-12.974-10.551-23.525-23.525-23.525H121.531    c-12.974,0-23.525,10.551-23.525,23.525v72.559C98.006,443.589,108.557,454.146,121.531,454.146 M509.998,315.718h-4.309H106.316    h-4.308c-12.038,0-21.793,11.983-21.793,26.769v5.293v25.288v51.573c0,28.521,18.825,51.644,42.044,51.644h141.17    c6.212,0,11.824-4.396,14.443-11.316c6.353-16.793,18.85-46.341,28.133-46.341c9.284,0,21.781,29.554,28.134,46.341    c2.619,6.922,8.231,11.316,14.443,11.316h141.17c23.22,0,42.045-23.121,42.045-51.644v-51.573V347.78v-5.293    C531.791,327.707,522.03,315.718,509.998,315.718L509.998,315.718z M363.442,448.026c-9.614,0-17.405-7.791-17.405-17.405v-72.559    c0-9.614,7.791-17.405,17.405-17.405h127.023c9.615,0,17.405,7.791,17.405,17.405v72.559c0,9.614-7.79,17.405-17.405,17.405    H363.442L363.442,448.026z M121.531,448.026c-9.614,0-17.405-7.791-17.405-17.405v-72.559c0-9.614,7.791-17.405,17.405-17.405    h127.027c9.615,0,17.405,7.791,17.405,17.405v72.559c0,9.614-7.791,17.405-17.405,17.405H121.531L121.531,448.026z"/>
	</g>
</g>
</svg>